<svg width="32" height="32" viewBox="0 0 32 32" fill="none" xmlns="http://www.w3.org/2000/svg">
<path d="M26.148 30.4102H25.5762C25.5762 30.4041 25.5733 30.3979 25.5721 30.3922L25.5565 30.3215C25.5465 30.275 25.5356 30.229 25.5244 30.1833C25.5196 30.1618 25.5144 30.1402 25.5092 30.1187C25.4943 30.0584 25.4787 29.9981 25.4627 29.9379L25.4578 29.9206C25.4402 29.8553 25.4217 29.7903 25.4025 29.7255L25.3832 29.6629C25.37 29.6183 25.356 29.5742 25.3431 29.53C25.3355 29.5058 25.3275 29.482 25.3199 29.4582C25.3058 29.4155 25.2914 29.3729 25.2766 29.3307C25.269 29.3084 25.2609 29.2857 25.2533 29.2639C25.2346 29.2109 25.2153 29.1582 25.1956 29.106C25.1911 29.0949 25.1875 29.0841 25.1831 29.073C25.1599 29.0115 25.1354 28.9505 25.1105 28.8894C25.1017 28.8671 25.0925 28.8452 25.0833 28.8233C25.0664 28.7849 25.0496 28.7427 25.0323 28.7028L24.9999 28.6286C24.983 28.5902 24.9658 28.5518 24.9481 28.5134C24.9373 28.4896 24.9261 28.4654 24.9148 28.4416C24.8944 28.3974 24.8747 28.3537 24.8519 28.3103C24.8435 28.2937 24.8358 28.2768 24.8274 28.26C24.7989 28.2027 24.7697 28.1447 24.74 28.0894L24.6999 28.0176L24.6433 27.9135L24.5992 27.8367C24.5808 27.8045 24.5623 27.7722 24.5435 27.7399C24.5286 27.7138 24.5134 27.6877 24.4982 27.6631C24.4773 27.6282 24.4581 27.594 24.4352 27.5594L24.3774 27.4657C24.3502 27.4227 24.3229 27.3793 24.2948 27.3367C24.2772 27.3098 24.2595 27.2833 24.2415 27.2568C24.2234 27.2303 24.2038 27.2 24.1845 27.1719C24.1653 27.1439 24.1444 27.1159 24.1268 27.0882C24.1091 27.0606 24.0899 27.0356 24.071 27.0114C24.0522 26.9872 24.0309 26.955 24.0105 26.9269L23.9539 26.8501C23.9138 26.799 23.8769 26.748 23.8376 26.6965L23.7827 26.6262C23.7594 26.5966 23.7354 26.5675 23.7117 26.5383L23.6588 26.4737C23.6343 26.4442 23.6095 26.415 23.5846 26.3854L23.5324 26.3247L23.4547 26.2356L23.4085 26.1842C23.3127 26.0778 23.2144 25.9729 23.1138 25.8708L23.0697 25.8259L22.9774 25.7348L22.9321 25.6911C22.9 25.6599 22.8679 25.6292 22.8354 25.5989L22.8022 25.5682C22.6887 25.4625 22.572 25.3596 22.4533 25.2609L22.4208 25.2337C22.3841 25.2029 22.3472 25.1726 22.3101 25.1426L22.2732 25.1127C22.2331 25.082 22.1966 25.0516 22.1577 25.0213L22.138 25.0063C22.0069 24.9049 21.8725 24.8062 21.737 24.7113L21.7181 24.6979C21.6752 24.6683 21.6323 24.6391 21.589 24.6103L21.5605 24.5915C21.5164 24.562 21.4719 24.5332 21.4274 24.5043L21.4198 24.4997C21.2722 24.4053 21.1218 24.3148 20.9686 24.2282L20.9626 24.2244C20.9141 24.1971 20.8655 24.1706 20.817 24.1441L20.7958 24.1326C20.5375 23.9931 20.2723 23.865 20.0001 23.7485L19.9832 23.7412C19.9115 23.7105 19.8393 23.6809 19.7663 23.6518H21.2016C21.4354 23.6518 21.6251 23.3941 21.6251 23.0757C21.6251 22.7573 21.4354 22.4996 21.2016 22.4996H20.7741C20.8006 22.4351 20.8298 22.3621 20.8615 22.2799C21.2658 22.0388 21.9772 21.5249 22.683 20.5809L22.6887 20.5736C22.7421 20.503 22.7947 20.4299 22.8463 20.3543L22.8567 20.3394C22.908 20.2652 22.9594 20.1888 23.0099 20.1089L23.0235 20.0878C23.0476 20.0494 23.0717 20.011 23.0957 19.9726C23.0957 19.9726 23.0957 19.9695 23.0985 19.9676C23.1234 19.9292 23.1479 19.8869 23.1723 19.8459L23.188 19.8193C23.2088 19.784 23.2301 19.7479 23.2505 19.7114C23.2545 19.7049 23.2585 19.6984 23.2621 19.6915C23.2858 19.65 23.3095 19.6077 23.3327 19.5651L23.3488 19.5355C23.368 19.5002 23.3869 19.4645 23.4057 19.4284C23.4113 19.4184 23.417 19.408 23.4222 19.3977C23.4446 19.3543 23.4671 19.3105 23.4895 19.2659L23.5052 19.2348C23.5228 19.1987 23.5409 19.1619 23.5585 19.125L23.5778 19.0866C23.5994 19.0413 23.6207 18.9952 23.6419 18.9487L23.6552 18.9191C23.6728 18.8807 23.6901 18.8423 23.7073 18.8039L23.7278 18.7578C23.7478 18.7114 23.7679 18.6645 23.7871 18.6173C23.7907 18.6088 23.7943 18.6 23.7975 18.5915C23.8156 18.5482 23.8332 18.504 23.8509 18.4594L23.8709 18.4087C23.8874 18.3665 23.9038 18.3239 23.9199 18.2812L23.9319 18.249C23.9507 18.1983 23.9692 18.1464 23.9876 18.0954L24.0069 18.0408C24.0213 18.0001 24.0354 17.9586 24.0494 17.9172C24.0546 17.9018 24.0598 17.8864 24.0646 17.8711C24.0823 17.8181 24.0999 17.7639 24.1172 17.7098C24.1228 17.691 24.1288 17.6714 24.1344 17.6537L24.1745 17.5274C24.1797 17.5089 24.1853 17.4889 24.1906 17.4724C24.207 17.4167 24.2234 17.3599 24.2391 17.3027C24.2443 17.2846 24.2491 17.2662 24.2539 17.2478C24.266 17.2036 24.278 17.1594 24.2896 17.1145C24.2948 17.0941 24.3 17.0738 24.3057 17.0534C24.3205 16.9943 24.3353 16.9348 24.3498 16.8745L24.3618 16.8242C24.373 16.7762 24.3843 16.7278 24.3951 16.679L24.4095 16.6137C24.4232 16.5511 24.4368 16.4885 24.4496 16.4247C24.4524 16.4125 24.4548 16.3998 24.4573 16.3863C24.4685 16.3314 24.4793 16.2757 24.4897 16.2201C24.4941 16.1974 24.4982 16.1747 24.5026 16.1521C24.513 16.0949 24.523 16.0369 24.533 15.9796C24.5351 15.9674 24.5375 15.9554 24.5395 15.9435C24.5507 15.8759 24.5617 15.8078 24.5723 15.7392C24.576 15.7162 24.5796 15.6931 24.5828 15.6697C24.5912 15.614 24.5992 15.558 24.6072 15.5011L24.6145 15.4489C24.6241 15.3782 24.6333 15.3072 24.6421 15.235C24.6449 15.2123 24.6473 15.1897 24.6501 15.1666C24.6571 15.1093 24.6635 15.0517 24.6694 14.9938C24.6718 14.973 24.6742 14.9527 24.6762 14.932C24.684 14.8577 24.6912 14.7828 24.6979 14.7073C24.6979 14.6862 24.7015 14.665 24.7031 14.6435C24.7083 14.5829 24.7135 14.5218 24.7179 14.4603C24.7179 14.4377 24.7215 14.415 24.7231 14.3924C24.7288 14.314 24.734 14.2352 24.7388 14.1558C24.7388 14.1377 24.7388 14.1174 24.7416 14.1013C24.7452 14.0352 24.7488 13.9688 24.7516 13.9019C24.7516 13.8777 24.7516 13.8536 24.7548 13.8294C24.758 13.7468 24.7612 13.6638 24.7636 13.5797C24.7636 13.5682 24.7636 13.5563 24.7636 13.5444C24.7658 13.4696 24.7674 13.3941 24.7685 13.3178C24.7685 13.2928 24.7685 13.2679 24.7685 13.2429C24.7685 13.161 24.7685 13.0785 24.7685 12.9956V12.9764C24.7685 12.8881 24.7685 12.7986 24.7685 12.7076V12.6307C24.7685 12.5539 24.7652 12.4733 24.7632 12.3934V12.35C24.7604 12.2578 24.7568 12.1645 24.7532 12.0708C24.7532 12.0466 24.7508 12.022 24.75 11.9978C24.7465 11.919 24.7425 11.8396 24.738 11.7597C24.738 11.7401 24.738 11.7213 24.7348 11.7002C24.7292 11.6042 24.723 11.5074 24.7163 11.4099L24.7115 11.3419C24.7055 11.2605 24.6995 11.1787 24.6927 11.0961C24.6927 11.0723 24.6891 11.0485 24.687 11.0247C24.6786 10.9248 24.6694 10.8238 24.6598 10.7224C24.6598 10.7032 24.6558 10.684 24.6542 10.6644C24.6457 10.578 24.6365 10.4908 24.6273 10.4029C24.6245 10.3764 24.6217 10.3503 24.6185 10.3238C24.6072 10.2193 24.5952 10.1145 24.5824 10.0081C24.5824 9.99502 24.5788 9.98197 24.5772 9.96968C24.5657 9.87443 24.5535 9.77868 24.5407 9.68241C24.5367 9.65399 24.533 9.62557 24.529 9.59715C24.5141 9.48808 24.4987 9.37811 24.4829 9.26725C22.8788 -1.66812 11.5109 0.106562 11.5109 0.106562L11.875 2.45617L5 9.41127L5.30038 12.0969L7.90473 13.6331C8.02083 13.3505 8.16989 13.0814 8.34908 12.8308C10.0294 10.9747 13.2895 9.51765 14.2227 9.21541C14.4096 9.15511 14.5159 9.12477 14.5159 9.12477C10.0519 14.6574 10.5596 20.9957 10.7585 22.5065C10.5516 22.5449 10.3916 22.7842 10.3916 23.0761C10.3916 23.3941 10.5813 23.6521 10.8151 23.6521H12.2504C9.86327 24.609 7.96841 26.4315 6.97953 28.7216C6.97837 28.7247 6.97703 28.7278 6.97552 28.7308C6.90253 28.9008 6.83463 29.0732 6.7718 29.2481C6.7719 29.2499 6.7719 29.2517 6.7718 29.2535C6.75495 29.3011 6.73851 29.3487 6.72247 29.3967C6.71645 29.414 6.71044 29.4313 6.70482 29.449C6.69038 29.492 6.67702 29.5354 6.66472 29.5792C6.6575 29.6014 6.65068 29.6241 6.64386 29.6464C6.63103 29.6875 6.6186 29.7289 6.60657 29.7704L6.58491 29.8472C6.57368 29.8856 6.56245 29.9267 6.55203 29.9667C6.54441 29.9951 6.53719 30.0231 6.52997 30.0515C6.52034 30.0899 6.51032 30.1283 6.50109 30.1667C6.49187 30.2052 6.48305 30.2436 6.47422 30.2843C6.4654 30.325 6.45417 30.3726 6.44455 30.4171H5.87226C5.76221 30.4148 5.65279 30.4336 5.55041 30.4723C5.44803 30.511 5.35476 30.5689 5.27608 30.6427C5.19739 30.7164 5.13487 30.8044 5.09218 30.9016C5.0495 30.9987 5.02751 31.1031 5.02751 31.2085C5.02751 31.3139 5.0495 31.4182 5.09218 31.5154C5.13487 31.6126 5.19739 31.7006 5.27608 31.7743C5.35476 31.848 5.44803 31.9059 5.55041 31.9447C5.65279 31.9834 5.76221 32.0021 5.87226 31.9998H26.1553C26.2653 32.0021 26.3747 31.9834 26.4771 31.9447C26.5795 31.9059 26.6728 31.848 26.7514 31.7743C26.8301 31.7006 26.8926 31.6126 26.9353 31.5154C26.978 31.4182 27 31.3139 27 31.2085C27 31.1031 26.978 30.9987 26.9353 30.9016C26.8926 30.8044 26.8301 30.7164 26.7514 30.6427C26.6728 30.5689 26.5795 30.511 26.4771 30.4723C26.3747 30.4336 26.2653 30.4148 26.1553 30.4171L26.148 30.4102Z" fill="#595653"/>
</svg>
