<svg xmlns="http://www.w3.org/2000/svg" width="36" height="36" fill="none"><rect width="36" height="36" fill="#fff" rx="18"/><path fill="#313131" d="M18.5 25.24c-1.747 0-3.1-.52-4.06-1.56-.96-1.053-1.44-2.747-1.44-5.08v-.4c0-1.787.24-3.22.72-4.3.493-1.093 1.167-1.887 2.02-2.38.867-.507 1.853-.76 2.96-.76.867 0 1.62.12 2.26.36.653.24 1.18.62 1.58 1.14.4.507.653 1.18.76 2.02h-2.8a1.37 1.37 0 0 0-.68-.74c-.307-.173-.713-.26-1.22-.26-.533 0-1 .113-1.4.34-.387.213-.707.607-.96 1.18-.24.573-.387 1.413-.44 2.52a2.71 2.71 0 0 1 1.46-1.14 6.1 6.1 0 0 1 1.94-.32c.947 0 1.74.173 2.38.52a3.54 3.54 0 0 1 1.5 1.5c.347.653.52 1.447.52 2.38v.22c0 .947-.22 1.78-.66 2.5a4.426 4.426 0 0 1-1.8 1.66c-.773.4-1.653.6-2.64.6Zm-.2-2.52c.72 0 1.28-.2 1.68-.6.413-.413.62-.94.62-1.58v-.2c0-.64-.207-1.16-.62-1.56-.4-.4-.96-.6-1.68-.6s-1.287.2-1.7.6c-.4.4-.6.92-.6 1.56v.2c0 .64.2 1.167.6 1.58.413.4.98.6 1.7.6Z"/></svg>