<svg xmlns="http://www.w3.org/2000/svg" width="36" height="36" fill="none"><rect width="36" height="36" fill="#fff" rx="18"/><path fill="#313131" d="M17.9 25.24c-1.133 0-2.087-.18-2.86-.54-.773-.373-1.36-.9-1.76-1.58-.387-.68-.58-1.487-.58-2.42h3c0 .68.173 1.187.52 1.52.347.333.907.5 1.68.5.733 0 1.28-.16 1.64-.48.373-.333.56-.8.56-1.4 0-.627-.187-1.1-.56-1.42-.36-.32-.907-.48-1.64-.48h-1.32v-2.28h1.32c.64 0 1.133-.133 1.48-.4.347-.28.52-.707.52-1.28 0-.493-.167-.9-.5-1.22-.333-.32-.833-.48-1.5-.48-.68 0-1.187.153-1.52.46-.32.307-.48.76-.48 1.36h-3c0-.92.18-1.7.54-2.34.373-.653.933-1.147 1.68-1.48.747-.347 1.673-.52 2.78-.52 1.107 0 2.033.167 2.78.5.747.333 1.3.787 1.66 1.36.373.573.56 1.22.56 1.94 0 .787-.22 1.453-.66 2-.427.533-1 .913-1.72 1.14.827.227 1.46.627 1.9 1.2.453.56.68 1.293.68 2.2 0 .8-.213 1.513-.64 2.14-.413.613-1.007 1.1-1.78 1.46-.773.36-1.7.54-2.78.54Z"/></svg>