<svg xmlns="http://www.w3.org/2000/svg" width="36" height="36" fill="none"><rect width="36" height="36" fill="#fff" rx="18"/><path fill="#313131" d="M18 25.24c-.88 0-1.633-.113-2.26-.34-.627-.227-1.14-.533-1.54-.92-.4-.387-.7-.827-.9-1.32a4.697 4.697 0 0 1-.3-1.56h3c.04.48.22.873.54 1.18.333.293.82.44 1.46.44.733 0 1.28-.207 1.64-.62.373-.413.56-1.033.56-1.86 0-.587-.1-1.053-.3-1.4-.2-.36-.467-.613-.8-.76-.333-.16-.7-.24-1.1-.24-.467 0-.853.087-1.16.26a1.91 1.91 0 0 0-.74.68h-2.8V11h9.12v2.48H16.3v2.56c.28-.253.62-.433 1.02-.54.4-.107.86-.16 1.38-.16.907 0 1.693.18 2.36.54.667.36 1.187.907 1.56 1.64.387.72.58 1.627.58 2.72 0 1-.22 1.88-.66 2.64a4.437 4.437 0 0 1-1.8 1.74c-.773.413-1.687.62-2.74.62Z"/></svg>