<svg xmlns="http://www.w3.org/2000/svg" width="36" height="36" fill="none"><rect width="36" height="36" fill="#fff" rx="18"/><path fill="#313131" d="M12.6 25v-2.18l4.9-4.22c.613-.547 1.1-.993 1.46-1.34.373-.36.64-.7.8-1.02.16-.32.24-.667.24-1.04 0-.573-.16-1.033-.48-1.38-.307-.36-.78-.54-1.42-.54-.733 0-1.3.2-1.7.6-.4.387-.6 1.053-.6 2h-3c0-1.053.2-1.96.6-2.72a4.1 4.1 0 0 1 1.78-1.78c.8-.413 1.773-.62 2.92-.62 1.067 0 1.967.193 2.7.58.733.373 1.28.893 1.64 1.56.373.667.56 1.433.56 2.3 0 .64-.153 1.24-.46 1.8a6.871 6.871 0 0 1-1.18 1.6 20.835 20.835 0 0 1-1.66 1.52l-2.88 2.4h6.38V25H12.6Z"/></svg>