<svg width="180" height="180" viewBox="0 0 180 180" fill="none" xmlns="http://www.w3.org/2000/svg">
<path d="M147.083 171.058H143.866C143.866 171.023 143.85 170.988 143.843 170.956L143.755 170.559C143.699 170.297 143.638 170.038 143.575 169.781C143.548 169.66 143.518 169.539 143.489 169.418C143.406 169.079 143.318 168.74 143.227 168.4L143.2 168.303C143.101 167.936 142.997 167.57 142.889 167.206L142.781 166.854C142.706 166.603 142.627 166.355 142.555 166.106C142.512 165.97 142.467 165.836 142.424 165.702C142.345 165.462 142.264 165.223 142.181 164.985C142.138 164.86 142.093 164.732 142.05 164.609C141.945 164.311 141.836 164.015 141.725 163.721C141.7 163.659 141.68 163.598 141.655 163.536C141.524 163.19 141.387 162.846 141.247 162.503C141.197 162.378 141.145 162.254 141.093 162.131C140.999 161.915 140.904 161.678 140.807 161.453L140.624 161.036C140.529 160.82 140.432 160.604 140.333 160.388C140.272 160.254 140.209 160.118 140.146 159.984C140.031 159.736 139.92 159.489 139.792 159.245C139.744 159.152 139.702 159.057 139.654 158.962C139.494 158.64 139.329 158.314 139.162 158.003L138.937 157.599L138.619 157.014L138.371 156.582C138.267 156.4 138.163 156.219 138.057 156.037C137.974 155.89 137.888 155.743 137.802 155.605C137.685 155.409 137.577 155.216 137.448 155.022L137.123 154.495C136.97 154.253 136.816 154.009 136.658 153.769C136.559 153.618 136.46 153.469 136.358 153.32C136.257 153.171 136.146 153 136.038 152.842C135.93 152.684 135.812 152.527 135.713 152.371C135.614 152.216 135.506 152.075 135.4 151.939C135.294 151.803 135.174 151.622 135.059 151.464L134.741 151.032C134.515 150.745 134.308 150.457 134.087 150.168L133.778 149.772C133.647 149.606 133.511 149.442 133.378 149.278L133.081 148.915C132.943 148.748 132.803 148.584 132.663 148.418L132.37 148.077L131.932 147.575L131.673 147.286C131.134 146.688 130.581 146.098 130.015 145.523L129.767 145.27L129.248 144.758L128.993 144.512C128.813 144.337 128.632 144.164 128.449 143.994L128.262 143.821C127.624 143.227 126.967 142.648 126.3 142.093L126.117 141.939C125.911 141.766 125.703 141.596 125.494 141.427L125.287 141.259C125.061 141.086 124.856 140.915 124.637 140.745L124.526 140.66C123.789 140.09 123.033 139.535 122.271 139.001L122.165 138.926C121.923 138.759 121.682 138.595 121.438 138.433L121.278 138.327C121.03 138.161 120.779 137.999 120.529 137.837L120.486 137.811C119.656 137.28 118.81 136.771 117.948 136.284L117.915 136.262C117.642 136.109 117.369 135.96 117.096 135.811L116.976 135.746C115.523 134.961 114.031 134.241 112.501 133.586L112.406 133.545C112.002 133.372 111.596 133.205 111.185 133.041H119.259C120.574 133.041 121.641 131.592 121.641 129.801C121.641 128.01 120.574 126.56 119.259 126.56H116.854C117.003 126.197 117.168 125.787 117.346 125.325C119.62 123.968 123.622 121.078 127.592 115.768L127.624 115.727C127.925 115.329 128.22 114.918 128.51 114.493L128.569 114.409C128.858 113.992 129.146 113.562 129.431 113.113L129.507 112.994C129.643 112.778 129.778 112.562 129.913 112.346C129.913 112.346 129.913 112.329 129.929 112.318C130.069 112.102 130.207 111.864 130.344 111.633L130.432 111.484C130.55 111.285 130.669 111.082 130.784 110.877C130.807 110.84 130.829 110.803 130.85 110.764C130.983 110.531 131.116 110.294 131.247 110.054L131.337 109.887C131.445 109.689 131.551 109.488 131.657 109.285C131.689 109.229 131.72 109.17 131.75 109.112C131.876 108.868 132.002 108.621 132.129 108.371L132.217 108.196C132.316 107.993 132.417 107.785 132.517 107.578L132.625 107.362C132.747 107.107 132.866 106.848 132.986 106.587L133.06 106.42C133.16 106.204 133.257 105.988 133.354 105.772L133.469 105.513C133.581 105.251 133.694 104.988 133.802 104.722C133.823 104.675 133.843 104.625 133.861 104.577C133.963 104.333 134.062 104.085 134.161 103.834L134.274 103.549C134.366 103.312 134.459 103.072 134.549 102.832L134.617 102.65C134.723 102.365 134.827 102.074 134.93 101.786L135.039 101.48C135.12 101.251 135.199 101.017 135.278 100.784C135.307 100.698 135.336 100.611 135.364 100.525C135.463 100.227 135.562 99.9221 135.659 99.6175C135.691 99.5116 135.724 99.4015 135.756 99.3021L135.982 98.5914C136.011 98.4877 136.043 98.3753 136.072 98.2824C136.164 97.9692 136.257 97.6495 136.345 97.3276C136.374 97.2261 136.401 97.1224 136.428 97.0187C136.496 96.7703 136.564 96.5218 136.629 96.2691C136.658 96.1546 136.688 96.0401 136.719 95.9256C136.803 95.5929 136.886 95.2581 136.967 94.9189L137.035 94.6359C137.098 94.3659 137.161 94.0937 137.222 93.8193L137.304 93.4521C137.38 93.1 137.457 92.7478 137.529 92.3892C137.545 92.3201 137.558 92.2488 137.572 92.1732C137.635 91.8643 137.696 91.551 137.755 91.2378C137.78 91.1103 137.802 90.9829 137.827 90.8554C137.886 90.5336 137.942 90.2074 137.998 89.8855C138.01 89.8163 138.023 89.7494 138.034 89.6824C138.098 89.3022 138.159 88.9191 138.219 88.5331C138.24 88.4035 138.26 88.2739 138.278 88.1421C138.325 87.8289 138.371 87.5135 138.416 87.1938L138.456 86.9C138.51 86.5025 138.562 86.1028 138.612 85.6967C138.628 85.5693 138.641 85.4418 138.657 85.3122C138.696 84.9896 138.732 84.6655 138.765 84.3401C138.779 84.2234 138.792 84.1089 138.804 83.9923C138.847 83.5746 138.888 83.1534 138.926 82.7285C138.926 82.6097 138.946 82.4909 138.955 82.3699C138.984 82.0286 139.014 81.6851 139.038 81.3394C139.038 81.212 139.059 81.0845 139.068 80.9571C139.099 80.5164 139.129 80.0728 139.156 79.6264C139.156 79.5248 139.156 79.4103 139.171 79.3196C139.192 78.948 139.212 78.5743 139.228 78.1984C139.228 78.0623 139.228 77.9262 139.246 77.7901C139.264 77.3257 139.282 76.8591 139.295 76.386C139.295 76.3211 139.295 76.2542 139.295 76.1872C139.308 75.7667 139.317 75.3418 139.323 74.9126C139.323 74.7722 139.323 74.6318 139.323 74.4914C139.323 74.0305 139.323 73.5668 139.323 73.1002V72.9922C139.323 72.4953 139.323 71.992 139.323 71.48V71.0479C139.323 70.6159 139.305 70.1622 139.293 69.7129V69.4688C139.277 68.9503 139.257 68.4254 139.237 67.8983C139.237 67.7622 139.223 67.6239 139.219 67.4878C139.199 67.0442 139.177 66.5978 139.151 66.1484C139.151 66.0383 139.151 65.9324 139.133 65.8136C139.101 65.2735 139.067 64.7292 139.029 64.1804L139.002 63.7981C138.968 63.3401 138.935 62.88 138.896 62.4155C138.896 62.2816 138.876 62.1476 138.865 62.0137C138.817 61.452 138.765 60.8839 138.711 60.3136C138.711 60.2055 138.689 60.0975 138.68 59.9874C138.632 59.5013 138.58 59.0109 138.529 58.5162C138.513 58.3672 138.497 58.2203 138.479 58.0712C138.416 57.4836 138.348 56.8939 138.276 56.2955C138.276 56.222 138.256 56.1486 138.247 56.0794C138.182 55.5437 138.113 55.0051 138.041 54.4636C138.019 54.3037 137.998 54.1438 137.976 53.984C137.892 53.3705 137.805 52.7519 137.716 52.1283C128.693 -9.38318 64.7487 0.599409 64.7487 0.599409L66.797 13.8159L28.125 52.9384L29.8146 68.0452L44.4641 76.6862C45.1172 75.0966 45.9557 73.5828 46.9636 72.1734C56.4156 61.7329 74.7534 53.5368 80.0027 51.8367C81.054 51.4975 81.6518 51.3269 81.6518 51.3269C56.5419 82.4477 59.3978 118.101 60.5167 126.599C59.3527 126.815 58.4526 128.161 58.4526 129.803C58.4526 131.592 59.5196 133.043 60.8348 133.043H68.9085C55.4809 138.426 44.8223 148.677 39.2599 161.559C39.2533 161.577 39.2458 161.594 39.2373 161.611C38.8267 162.567 38.4448 163.537 38.0914 164.521C38.092 164.531 38.092 164.541 38.0914 164.551C37.9966 164.819 37.9041 165.087 37.8139 165.357C37.78 165.454 37.7462 165.551 37.7146 165.65C37.6334 165.892 37.5582 166.136 37.489 166.383C37.4484 166.508 37.4101 166.635 37.3717 166.761C37.2995 166.992 37.2296 167.225 37.1619 167.459L37.0401 167.891C36.977 168.107 36.9138 168.338 36.8552 168.562C36.8123 168.722 36.7717 168.88 36.7311 169.04C36.6769 169.256 36.6205 169.472 36.5687 169.688C36.5168 169.904 36.4671 170.12 36.4175 170.349C36.3679 170.578 36.3047 170.846 36.2506 171.096H33.0315C32.4124 171.083 31.7969 171.189 31.2211 171.407C30.6452 171.625 30.1206 171.95 29.6779 172.365C29.2353 172.78 28.8836 173.275 28.6435 173.821C28.4034 174.368 28.2798 174.955 28.2798 175.548C28.2798 176.141 28.4034 176.728 28.6435 177.274C28.8836 177.821 29.2353 178.316 29.6779 178.73C30.1206 179.145 30.6452 179.471 31.2211 179.689C31.7969 179.906 32.4124 180.012 33.0315 179.999H147.123C147.742 180.012 148.358 179.906 148.934 179.689C149.51 179.471 150.034 179.145 150.477 178.73C150.919 178.316 151.271 177.821 151.511 177.274C151.751 176.728 151.875 176.141 151.875 175.548C151.875 174.955 151.751 174.368 151.511 173.821C151.271 173.275 150.919 172.78 150.477 172.365C150.034 171.95 149.51 171.625 148.934 171.407C148.358 171.189 147.742 171.083 147.123 171.096L147.083 171.058Z" fill="#595653"/>
</svg>
